<svg width="303pt" height="252pt" viewBox="0.00 0.00 302.64 252.40" xmlns="http://www.w3.org/2000/svg" xmlns:xlink="http://www.w3.org/1999/xlink">
<g id="graph0" class="graph" transform="scale(1 1) rotate(0) translate(4 248.4)">
<polygon fill="white" stroke="none" points="-4,4 -4,-248.4 298.64,-248.4 298.64,4 -4,4"/>
<!-- 0 -->
<g id="node1" class="node">
<title>0</title>
<ellipse fill="none" stroke="black" cx="207.48" cy="-18" rx="27" ry="18"/>
<text text-anchor="middle" x="207.48" y="-13.8" font-family="Times,serif" font-size="14.00">0</text>
</g>
<!-- 1 -->
<g id="node2" class="node">
<title>1</title>
<ellipse fill="none" stroke="black" cx="87.16" cy="-18" rx="27" ry="18"/>
<text text-anchor="middle" x="87.16" y="-13.8" font-family="Times,serif" font-size="14.00">1</text>
</g>
<!-- 0&#45;&gt;1 -->
<g id="edge1" class="edge">
<title>0-&gt;1</title>
<path fill="none" stroke="black" d="M180.18,-18C164.1,-18 143.51,-18 125.79,-18"/>
<polygon fill="black" stroke="black" points="125.87,-14.5 115.87,-18 125.87,-21.5 125.87,-14.5"/>
</g>
<!-- 3 -->
<g id="node3" class="node">
<title>3</title>
<ellipse fill="none" stroke="black" cx="267.64" cy="-122.2" rx="27" ry="18"/>
<text text-anchor="middle" x="267.64" y="-118" font-family="Times,serif" font-size="14.00">3</text>
</g>
<!-- 0&#45;&gt;3 -->
<g id="edge2" class="edge">
<title>0-&gt;3</title>
<path fill="none" stroke="black" d="M223.09,-45.03C231.97,-60.41 243.05,-79.61 251.94,-95.01"/>
<polygon fill="black" stroke="black" points="226.2,-43.43 218.17,-36.52 220.14,-46.93 226.2,-43.43"/>
<polygon fill="black" stroke="black" points="248.91,-96.75 256.94,-103.66 254.97,-93.25 248.91,-96.75"/>
</g>
<!-- 2 -->
<g id="node4" class="node">
<title>2</title>
<ellipse fill="none" stroke="black" cx="87.16" cy="-226.4" rx="27" ry="18"/>
<text text-anchor="middle" x="87.16" y="-222.2" font-family="Times,serif" font-size="14.00">2</text>
</g>
<!-- 1&#45;&gt;2 -->
<g id="edge3" class="edge">
<title>1-&gt;2</title>
<path fill="none" stroke="black" d="M87.16,-36.49C87.16,-72.64 87.16,-152.95 87.16,-196.66"/>
<polygon fill="black" stroke="black" points="83.66,-196.44 87.16,-206.44 90.66,-196.44 83.66,-196.44"/>
</g>
<!-- 5 -->
<g id="node5" class="node">
<title>5</title>
<ellipse fill="none" stroke="black" cx="27" cy="-122.2" rx="27" ry="18"/>
<text text-anchor="middle" x="27" y="-118" font-family="Times,serif" font-size="14.00">5</text>
</g>
<!-- 1&#45;&gt;5 -->
<g id="edge4" class="edge">
<title>1-&gt;5</title>
<path fill="none" stroke="black" d="M77.23,-35.21C67.82,-51.5 53.55,-76.21 42.62,-95.14"/>
<polygon fill="black" stroke="black" points="39.67,-93.25 37.71,-103.66 45.74,-96.75 39.67,-93.25"/>
</g>
<!-- 3&#45;&gt;2 -->
<g id="edge5" class="edge">
<title>3-&gt;2</title>
<path fill="none" stroke="black" d="M246.94,-134.15C215.2,-152.48 154.35,-187.61 117.59,-208.84"/>
<polygon fill="black" stroke="black" points="116.12,-205.64 109.21,-213.67 119.62,-211.7 116.12,-205.64"/>
</g>
<!-- 4 -->
<g id="node6" class="node">
<title>4</title>
<ellipse fill="none" stroke="black" cx="207.48" cy="-226.4" rx="27" ry="18"/>
<text text-anchor="middle" x="207.48" y="-222.2" font-family="Times,serif" font-size="14.00">4</text>
</g>
<!-- 3&#45;&gt;4 -->
<g id="edge6" class="edge">
<title>3-&gt;4</title>
<path fill="none" stroke="black" d="M257.71,-139.41C248.3,-155.7 234.03,-180.41 223.11,-199.34"/>
<polygon fill="black" stroke="black" points="220.16,-197.45 218.19,-207.86 226.22,-200.95 220.16,-197.45"/>
</g>
<!-- 5&#45;&gt;2 -->
<g id="edge8" class="edge">
<title>5-&gt;2</title>
<path fill="none" stroke="black" d="M36.93,-139.41C46.34,-155.7 60.61,-180.41 71.54,-199.34"/>
<polygon fill="black" stroke="black" points="68.42,-200.95 76.45,-207.86 74.49,-197.45 68.42,-200.95"/>
</g>
<!-- 5&#45;&gt;4 -->
<g id="edge9" class="edge">
<title>5-&gt;4</title>
<path fill="none" stroke="black" d="M47.7,-134.15C79.44,-152.48 140.3,-187.61 177.06,-208.84"/>
<polygon fill="black" stroke="black" points="175.02,-211.7 185.43,-213.67 178.52,-205.64 175.02,-211.7"/>
</g>
<!-- 4&#45;&gt;2 -->
<g id="edge7" class="edge">
<title>4-&gt;2</title>
<path fill="none" stroke="black" d="M180.18,-226.4C164.1,-226.4 143.51,-226.4 125.79,-226.4"/>
<polygon fill="black" stroke="black" points="125.87,-222.9 115.87,-226.4 125.87,-229.9 125.87,-222.9"/>
</g>
</g>
</svg>